# xmcd CD database file
# Copyright (C) 1996 Ti Kan
#
# Track frame offsets:
# 	183
# 	22255
# 	41663
# 	57580
# 	76910
# 	90463
# 	101725
# 	122058
# 	141550
# 	157358
# 	175753
# 	193933
#
# Disc length: 2793 seconds
#
# Revision: 1
# Processed by: cddbd v1.4b41PL1 Copyright (c) Steve Scherf et al.
# Submitted via: DiscPlay 3.4.1
#
DISCID=b10ae70c
DTITLE=Blues Trottoir - Histoires Courtes
DYEAR=1900
DGENRE=
TTITLE0=Costard
TTITLE1=Lilly Et Bill
TTITLE2=Chicago Kid
TTITLE3=Mr Jones Vit A Paris
TTITLE4=Un Soir De Pluie
TTITLE5=Cyborg
TTITLE6=Sans Savoir Pourquoi (La Gosse)
TTITLE7=Absence
TTITLE8=24 Jours Explosifs
TTITLE9=Poker
TTITLE10=J'Suis Snob
TTITLE11=24 Jours Explosifs (Instrumental)
EXTD=
EXTT0=
EXTT1=
EXTT2=
EXTT3=
EXTT4=
EXTT5=
EXTT6=
EXTT7=
EXTT8=
EXTT9=
EXTT10=
EXTT11=
PLAYORDER=
